<?xml version="1.0" encoding="UTF-8"?>
<!-- Generated by @neplex/vectorizer (Using visioncortex VTracer) -->
<svg version="1.1" xmlns="http://www.w3.org/2000/svg" width="1024" height="1024">
<path d="M0 0 C1.0741996049881095 -0.00453111290931929 2.148399209976219 -0.00906222581863858 3.255150318145752 -0.013730645179748535 C6.819599923309795 -0.026291977313604775 10.383895108089519 -0.02475962387413233 13.9483642578125 -0.023101806640625 C16.518638042396503 -0.029092321340726812 19.0889100341044 -0.035899067249147265 21.6591796875 -0.04345703125 C27.896690374628633 -0.05999294717821613 34.134163240338125 -0.06556325199062485 40.37169402837753 -0.06668178737163544 C45.44942599058902 -0.06763603426617237 50.52714560559923 -0.07176502135473584 55.60487365722656 -0.07808303833007813 C70.0417763876178 -0.0956771895616555 84.47864951919951 -0.10492506628227716 98.91556304693222 -0.10342209041118622 C99.69209057152273 -0.10334217801690215 100.46861809611323 -0.10326226562261809 101.2686767578125 -0.103179931640625 C102.43491186708212 -0.10305728964507921 102.43491186708212 -0.10305728964507921 103.62470728158951 -0.1029321700334549 C116.20727817628631 -0.10212035007543818 128.78972905902754 -0.12123654293210961 141.37226527929306 -0.1494566649198532 C154.33173246097112 -0.1782897163444659 167.29114132500695 -0.19199117692872392 180.25064134597778 -0.1902691125869751 C187.5103211080443 -0.18960867306265072 194.76987513582435 -0.19494736973493332 202.02952575683594 -0.21662521362304688 C208.86525301841516 -0.236908293783074 215.7007123671243 -0.2360576603787763 222.5364532470703 -0.22159194946289063 C225.03075550908784 -0.21951608056758687 227.5250747670391 -0.22413083553377078 230.01934814453125 -0.2363128662109375 C266.4027627585988 -0.40235339193921504 296.11140096559666 8.994018302396512 322.9190673828125 34.521331787109375 C336.52215058335787 48.105092426290355 346.1929912593728 65.78168883399115 351.4815673828125 84.20492553710938 C351.67645751953125 84.87096801757812 351.87134765625 85.53701049804687 352.0721435546875 86.22323608398438 C356.49001060380317 102.7439949697254 356.0143965251201 119.82135003970541 355.9847412109375 136.77450561523438 C355.9801095167328 139.63957414090498 355.9870421297177 142.50421824265493 356.0052490234375 145.36923217773438 C356.2529020523125 184.7031220162836 349.80823955902156 218.12899298532466 321.6690673828125 247.26742553710938 C320.5553173828125 248.47592163085938 320.5553173828125 248.47592163085938 319.4190673828125 249.70883178710938 C301.5684027919792 268.5767217498467 274.3067994430123 280.6661706889415 248.40957641601563 281.51092529296875 C243.4551534479142 281.594827544558 238.50242655931697 281.5715028289466 233.54768562316895 281.52528953552246 C230.25465224733614 281.4972595424283 226.9623194182301 281.4927733523133 223.66917419433594 281.4947967529297 C214.31951900107515 281.4982994561407 204.97035434202735 281.47501269892877 195.6209716796875 281.4014587402344 C189.87044567097269 281.3578686133014 184.1209700008053 281.35321459767374 178.37032890319824 281.3730411529541 C176.19229502282928 281.3729439580122 174.01420789305575 281.35817798023294 171.83638191223145 281.3280849456787 C158.48439777842918 280.6034066622075 158.48439777842918 280.6034066622075 146.9451904296875 286.1756286621094 C145.81432703624228 287.507549403529 144.71514840220743 288.867932994464 143.6690673828125 290.2674255371094 C141.93123891320772 291.7196164543896 140.18333595361514 293.15997389706024 138.4190673828125 294.5799255371094 C129.7066885293916 301.6564613512927 121.18655130199454 308.9584636538484 112.6690673828125 316.2674255371094 C102.78498557484676 324.74752624209873 92.90141022121645 333.20627959895364 82.6690673828125 341.2674255371094 C83.71965332031249 342.0524645996094 84.77023925781248 342.8375036621094 85.8526611328125 343.6463317871094 C90.13050400331895 346.84579114496734 94.40101933358062 350.0549162527413 98.6690673828125 353.2674255371094 C99.56496582031252 353.94031616210935 100.46086425781249 354.6132067871094 101.3839111328125 355.3064880371094 C106.32503583957549 359.0771112310587 110.93599427882464 363.13581367454276 115.5050048828125 367.3494567871094 C117.71778339714479 369.3986678520163 117.71778339714479 369.3986678520163 120.6690673828125 371.2674255371094 C121.23109863281252 370.7195739746094 121.79312988281254 370.1717224121094 122.3721923828125 369.6072692871094 C140.849999425419 352.1780494539759 162.46634591445127 338.42568671989056 184.7139892578125 326.3352966308594 C186.66097591375592 325.271845128225 188.5947232631098 324.18680792682113 190.5284423828125 323.0994567871094 C229.6140594844794 301.42001922301455 273.8725220971893 289.79808341518867 317.6690673828125 282.2674255371094 C319.360478515625 281.9732775878906 319.360478515625 281.9732775878906 321.0860595703125 281.6731872558594 C355.31028504952144 275.8027485796922 355.31028504952144 275.8027485796922 361.6690673828125 280.2674255371094 C364.2617090532983 283.8980754494261 365.03644450771947 286.3472570843289 364.9620361328125 290.7869567871094 C364.9475341796874 292.3193298339844 364.9475341796874 292.3193298339844 364.9327392578125 293.8826599121094 C364.8950341796875 295.4653063964844 364.8950341796875 295.4653063964844 364.8565673828125 297.0799255371094 C364.83626464843746 298.69157592773433 364.83626464843746 298.69157592773433 364.8155517578125 300.3357849121094 C364.7802931554452 302.98018008965835 364.7310110439819 305.6235430144821 364.6690673828125 308.2674255371094 C365.39497070312495 308.24647827148436 366.1208740234375 308.22553100585935 366.8687744140625 308.2039489746094 C370.1770629358217 308.1204890374486 373.48512949058113 308.06867015048465 376.7940673828125 308.0174255371094 C377.9361767578125 307.98390991210937 379.07828613281254 307.95039428710936 380.2550048828125 307.9158630371094 C390.88800619968913 307.7922234869131 390.88800619968913 307.7922234869131 395.6690673828125 312.2674255371094 C397.73327955532886 315.36374379588386 397.91978116621067 316.00983396064856 397.92633628845215 319.5113277435303 C397.93278518080706 320.38158289313316 397.9392340731621 321.25183804273604 397.9458783864975 322.1484645605087 C397.9427811825276 323.10516156315805 397.9396839785576 324.06185856580737 397.9364929199219 325.04754638671875 C397.94102403283114 326.0633863699436 397.9455551457405 327.0792263531685 397.9502235651016 328.12584936618805 C397.96293197789305 331.5459711570182 397.9612430455527 334.96593502155133 397.9595947265625 338.3860778808594 C397.965575943453 340.83158067078745 397.97238054152433 343.27708156624965 397.9799499511719 345.7225799560547 C397.99581716687726 351.6855865705494 398.0020601254099 357.64853056814155 398.0031747072935 363.6115524619818 C398.00412453148203 368.4579354919133 398.0082315342971 373.3043054583302 398.01457595825195 378.15068435668945 C398.0321922538635 391.8866827993993 398.0414142351666 405.62264996852537 398.03991501033306 419.3586597889662 C398.0397951417416 420.469787896797 398.0397951417416 420.469787896797 398.0396728515625 421.6033630371094 C398.0395910902321 422.34501805856826 398.0395093289018 423.08667308002714 398.03942508995533 423.85080249607563 C398.0386120994806 435.8717937275336 398.0577519724342 447.8926596837647 398.0859495848417 459.91361467540264 C398.1146645587405 472.2523481447804 398.1284906443393 484.59102049121043 398.12676203250885 496.92978823184967 C398.12609764303295 503.85880803177827 398.13161117354457 510.78769651192283 398.1531181335449 517.7166862487793 C398.17321161124346 524.2321268107482 398.17267042550566 530.7473370328831 398.15808486938477 537.2628078460693 C398.15598742340126 539.6569744518049 398.16075294333166 542.0511581480938 398.1728057861328 544.4452953338623 C398.18817146715435 547.7083061581593 398.1790069408979 550.9703484218924 398.1635437011719 554.2333374023438 C398.1738308274746 555.1855729615688 398.18411795377733 556.1378085207939 398.1947168111801 557.1188997030258 C398.1511637668284 561.2644862533693 398.0377568891887 563.6459133518782 395.88816261291504 567.2695560455322 C392.6456707128732 570.1887978860369 390.05316857006517 571.5235397824121 385.6731243133545 571.4928255081177 C384.8834967029095 571.49227391541 384.0938690924645 571.4917223227025 383.280313372612 571.4911540150642 C382.41867269158365 571.4803517240285 381.5570320105553 571.469549432993 380.6692810058594 571.4584197998047 C379.7490745270252 571.4550398463011 378.8288680481911 571.4516598927975 377.88077652454376 571.4481775164604 C374.7890868239963 571.4347149940593 371.69767633364654 571.4071512801561 368.6060791015625 571.3799743652344 C366.3915509802032 571.3679920458454 364.1770168908322 571.3570723222014 361.9624786376953 571.3471374511719 C357.18527546467465 571.3247161947623 352.408135600361 571.2972647776148 347.63097763061523 571.2667331695557 C340.0540150702341 571.2209022185789 332.4771378386986 571.2019584104002 324.9000549316406 571.1897125244141 C322.97955631077286 571.1864629504084 322.97955631077286 571.1864629504084 321.02025973796844 571.1831477284431 C318.40119057540414 571.1788120127072 315.78212127367976 571.1745595952622 313.1630518436432 571.1703885793686 C306.42742193206084 571.1594197603345 299.69179772622874 571.1469997794516 292.9561767578125 571.1314392089844 C292.280408052355 571.129888785109 291.60463934689756 571.1283383612334 290.90839280188084 571.1267409548163 C280.0136668728768 571.1004921187716 269.11950909616723 571.0342132915297 258.2250596135855 570.9545156136155 C247.0037396170951 570.8735537817348 235.782875234951 570.8441696176831 224.5612336397171 570.8565828204155 C218.2752257216399 570.861723927068 211.9912566492368 570.844047021813 205.7056541442871 570.7688694000244 C169.22563231387903 569.6695683248794 169.22563231387903 569.6695683248794 136.56335639953613 583.98304271698 C134.6690673828125 585.2674255371094 134.6690673828125 585.2674255371094 131.6690673828125 586.2674255371094 C131.6690673828125 599.7974255371093 131.6690673828125 613.3274255371093 131.6690673828125 627.2674255371094 C134.63906738281253 628.2574255371094 137.60906738281255 629.2474255371094 140.6690673828125 630.2674255371094 C143.34094238281205 631.732269287109 143.34094238281205 631.732269287109 145.4190673828125 633.2049255371094 C146.46320800781245 633.9300231933594 146.46320800781245 633.9300231933594 147.5284423828125 634.6697692871094 C148.58805175781254 635.4606091308594 148.58805175781254 635.4606091308594 149.6690673828125 636.2674255371094 C150.4837548828125 636.8539489746094 151.29844238281248 637.4404724121093 152.1378173828125 638.0447692871094 C155.12029587866937 640.6636431515268 157.24322375033387 643.6103449062999 159.4190673828125 646.8924255371094 C160.01654785156256 647.7702770996094 160.01654785156256 647.7702770996094 160.6260986328125 648.6658630371094 C162.08494767942295 650.8219924754895 163.5035503275351 652.9363914265547 164.6690673828125 655.2674255371094 C171.90107785372743 654.0408433302647 178.98547429772066 652.527478177271 186.0792236328125 650.6658630371094 C187.48040687561036 650.3038731384278 187.48040687561036 650.3038731384278 188.90989685058594 649.9345703125 C191.85143060560506 649.1742333587131 194.79159256008904 648.4087662502064 197.7315673828125 647.6424255371094 C200.70381486245276 646.8695017969522 203.67634757298174 646.0977406735249 206.64964294433594 645.328857421875 C208.48993799734012 644.8528063199216 210.3296129366072 644.3743501840381 212.16859436035156 643.8932495117188 C212.99383102416994 643.6794766235352 213.8190676879883 643.4657037353516 214.6693115234375 643.2454528808594 C215.39558242797852 643.056071472168 216.12185333251955 642.8666900634765 216.87013244628906 642.6715698242188 C218.6690673828125 642.2674255371094 218.6690673828125 642.2674255371094 220.6690673828125 642.2674255371094 C220.58656738281252 641.3599255371093 220.50406738281254 640.4524255371093 220.4190673828125 639.5174255371094 C220.48694524610983 628.3175780930547 226.59175108038664 618.7759177473669 233.9229736328125 610.8221130371094 C243.67646035751568 601.3347728201429 254.66312710598277 597.9654709925007 267.9622802734375 597.9527282714844 C279.3121102796215 598.155940610826 287.93481413229597 602.1461180088137 296.6690673828125 609.2674255371094 C297.3058642578126 609.7675817871094 297.9426611328124 610.2677380371093 298.5987548828125 610.7830505371094 C307.18364729254176 618.3377558576711 311.96255412290543 630.6584306293522 312.8800048828125 641.8377380371094 C313.3062071727976 653.3451998667075 310.18757153423167 662.8633968813288 303.6690673828125 672.2674255371094 C303.0503173828125 673.1749255371094 302.43156738281255 674.0824255371094 301.7940673828125 675.0174255371094 C292.28838580382967 685.0822648560323 280.32607719131033 689.3477103172524 266.7315673828125 690.6424255371094 C251.43139507380988 689.8968662932385 240.09937756890827 684.2428738862415 229.6690673828125 673.2674255371094 C227.74656412107424 670.6638560974459 226.22350589319308 668.117229472807 224.6690673828125 665.2674255371094 C217.91403028018954 666.5411914511106 211.28175193387722 668.0806222404764 204.6456298828125 669.8689880371094 C202.78237395618407 670.3638750564263 200.91909195947756 670.858663930257 199.0557861328125 671.3533630371094 C196.15867564676716 672.1263865540878 193.2620092275747 672.9010214206548 190.3658447265625 673.6775817871094 C187.5435451665378 674.4331057318814 184.71970187803277 675.1826211695633 181.8956298828125 675.9314880371094 C181.02894683837894 676.1658255004883 180.16226379394539 676.4001629638672 179.26931762695313 676.6416015625 C178.46102508544914 676.8553744506836 177.65273254394538 677.0691473388672 176.8199462890625 677.2893981933594 C176.11286529541007 677.4787796020507 175.40578430175788 677.6681610107422 174.67727661132813 677.86328125 C172.6690673828124 678.2674255371094 172.6690673828124 678.2674255371094 168.6690673828125 678.2674255371094 C168.60590332031256 678.8268786621094 168.5427392578125 679.3863317871094 168.4776611328125 679.9627380371094 C166.4744475626229 693.0785153071929 160.01684655226472 704.0527411964476 149.6690673828125 712.2674255371094 C138.03435140601982 720.0959272872085 126.4855462773478 722.4777273300361 112.6690673828125 721.2674255371094 C99.60364953289263 718.565814603189 88.40325236602337 711.3966114771633 80.7237548828125 700.5096130371094 C76.15975153762673 693.1957499358284 74.92265804959453 688.2817882042375 72.6690673828125 679.2674255371094 C53.8590673828125 674.3174255371093 35.049067382812495 669.3674255371094 15.6690673828125 664.2674255371094 C14.679067382812491 666.7424255371093 14.679067382812491 666.7424255371093 13.6690673828125 669.2674255371094 C6.756670083861195 680.3822461939459 -3.786819168318061 686.8813971748921 -16.3309326171875 690.0174255371094 C-31.77088794926391 691.3040884814491 -44.59965911954811 688.1363906757426 -56.5184326171875 678.0799255371094 C-64.51470683986992 670.5927308845046 -70.12993278755255 660.7565885467708 -70.7645263671875 649.6541442871094 C-70.78821720524331 648.0879166600856 -70.78904144893261 646.5211967497396 -70.7684326171875 644.9549255371094 C-70.75940917968751 644.1260583496094 -70.75038574218752 643.2971911621094 -70.7410888671875 642.4432067871094 C-70.37235747047868 629.2917869711612 -65.35321413365568 619.7268370274943 -56.3856201171875 610.2010192871094 C-46.32789708895507 600.7744489185434 -34.70434396780843 597.7122099461751 -21.2059326171875 597.9666442871094 C-8.463790214924643 598.9557017114786 1.5697353582089022 604.4194030021207 10.0557861328125 613.9471130371094 C16.84924994950262 622.812520531718 20.08089662341081 631.1648612480832 20.6690673828125 642.2674255371094 C21.271709136962897 642.381618347168 21.874350891113295 642.4958111572265 22.495254516601563 642.6134643554688 C28.709185934108064 643.8195969721577 34.82406489242089 645.2659962584254 40.9464111328125 646.8689880371094 C42.859813604095734 647.3638144563427 44.77322532427081 647.8586051129694 46.6866455078125 648.3533630371094 C49.664877965359324 649.1270069001795 52.6427909376124 649.9018621472541 55.6204833984375 650.6775817871094 C58.520019778823894 651.4319018978333 61.420651361679745 652.1818887410662 64.3214111328125 652.9314880371094 C65.21512924194337 653.1658255004883 66.10884735107425 653.4001629638672 67.02964782714844 653.6416015625 C67.85803665161131 653.8553744506836 68.68642547607419 654.0691473388672 69.5399169921875 654.2893981933594 C70.26698348999025 654.4787796020507 70.994049987793 654.6681610107422 71.74314880371094 654.86328125 C73.83043178776228 655.3701114850919 73.83043178776228 655.3701114850919 76.6690673828125 655.2674255371094 C78.39072516834784 653.0459435414978 78.39072516834784 653.0459435414978 79.9815673828125 650.2049255371094 C86.55262907735187 639.5132605716193 94.5336430162418 631.4776748071441 106.6690673828125 627.2674255371094 C107.65906738281251 627.2674255371094 108.64906738281252 627.2674255371094 109.6690673828125 627.2674255371094 C109.6690673828125 613.7374255371094 109.6690673828125 600.2074255371094 109.6690673828125 586.2674255371094 C107.68906738281248 585.6074255371094 105.70906738281252 584.9474255371093 103.6690673828125 584.2674255371094 C102.1162748681345 583.5354910873542 100.58088030063004 582.7652263930413 99.0675048828125 581.9549255371094 C98.24766113281248 581.5192224121093 97.42781738281246 581.0835192871094 96.5831298828125 580.6346130371094 C95.7452392578125 580.1834411621094 94.9073486328125 579.7322692871094 94.0440673828125 579.2674255371094 C92.3645216496177 578.3713264416548 90.68483904988307 577.475483815453 89.0050048828125 576.5799255371094 C88.26814453124996 576.1841833496094 87.53128417968753 575.7884411621094 86.7720947265625 575.3807067871094 C86.07809570312497 575.0133239746094 85.3840966796875 574.6459411621094 84.6690673828125 574.2674255371094 C84.04926101088523 573.9196891063452 83.42945463895796 573.571952675581 82.79086625576019 573.2136787772179 C80.52710782152315 572.2041161930679 79.07811138940076 572.0164151944341 76.61725807189941 572.0140924453735 C75.81529648423191 572.00847704947 75.01333489656452 572.0028616535664 74.18707144260406 571.9970760941505 C73.31178836703305 572.0010571879149 72.43650529146191 572.0050382816792 71.53469848632813 572.0091400146484 C70.6003806912899 572.00546431005 69.66606289625167 572.0017886054516 68.70343244075775 571.9980015158653 C65.56513190409726 571.9880021751492 62.42700788099262 571.992176193098 59.2886962890625 571.9961853027344 C57.04171052108751 571.9917993723984 54.7947263803527 571.9864977050734 52.54774475097656 571.9803466796875 C47.70504384428307 571.9688352671427 42.86238676055444 571.9633864228379 38.01967239379883 571.9624652862549 C30.3641383385542 571.9605273694509 22.708695135393327 571.9424895311596 15.053192138671875 571.9217071533203 C4.321313789899705 571.8939260658268 -6.410555695398784 571.870946590785 -17.1424560546875 571.8540954589844 C-17.8234709687531 571.8530227785558 -18.5044858828187 571.8519500981271 -19.206137612462044 571.850844912231 C-26.802889607000793 571.8390265334594 -34.39964240887451 571.8288209552945 -41.99639892578125 571.8204040527344 C-44.750488302437304 571.8173301660548 -47.50457766132672 571.814241370637 -50.2586669921875 571.8111267089844 C-50.93824566647413 571.8103613699227 -51.617824340760706 571.8095960308611 -52.31799630820751 571.8088074997067 C-63.65221159623417 571.7957227953262 -74.98636017488985 571.7709226857779 -86.32053625583649 571.7373833060265 C-93.9324840089364 571.7155773938899 -101.54428435976092 571.7075518809089 -109.15626120567322 571.7097760438919 C-113.89072765531807 571.7081109818234 -118.62509763531983 571.6940726374078 -123.35952949523926 571.6765632629395 C-125.55653368297601 571.670957117358 -127.75355781703348 571.670484602167 -129.95056343078613 571.675500869751 C-132.94812910587348 571.6816278725219 -135.9450839593794 571.6694361459096 -138.94259643554688 571.6526947021484 C-139.8134180676937 571.6589065176248 -140.68423969984053 571.6651183331013 -141.58144986629486 571.6715183854103 C-146.54069731288857 571.6209958880418 -150.11569399776448 571.1660820057965 -154.3309326171875 568.2674255371094 C-158.2674207806166 563.874246390344 -157.75151032695697 558.9071042655004 -157.71188354492188 553.3227233886719 C-157.71656351685525 552.3133416604995 -157.72124348878862 551.3039599323273 -157.72606527805328 550.2639908790588 C-157.73804281858676 546.8776327996856 -157.72854703561393 543.491677336188 -157.7191162109375 540.1053161621094 C-157.72318067348002 537.6792222435481 -157.72852184501676 535.2531301758632 -157.73504638671875 532.8270416259766 C-157.74731794966033 526.9191002743571 -157.74550506705322 521.0112637004244 -157.73680846393108 515.1033252477646 C-157.73003314680767 510.30179936856996 -157.72911453487427 505.5003055329262 -157.73237991333008 500.6987762451172 C-157.73283961243928 500.0153830829263 -157.73329931154848 499.3319899207354 -157.7337729409337 498.6278878748417 C-157.73473211754023 497.2395851916125 -157.73570475724821 495.85128251762103 -157.73669071495533 494.46297985315323 C-157.7452452278402 481.4450333376417 -157.7354095302389 468.42715020052833 -157.7192896157503 455.40921407938004 C-157.70588636334608 444.239360898139 -157.7082144393452 433.06960124937905 -157.7220458984375 421.8997497558594 C-157.73810064341495 408.9283695910224 -157.74442124895901 395.95704497393365 -157.735209107399 382.9856562614441 C-157.73425346051206 381.602462459299 -157.73331034840285 380.2192686484357 -157.73237991333008 378.83607482910156 C-157.73191708676518 378.15551809221506 -157.73145426020025 377.47496135532856 -157.73097740858793 376.77378168702126 C-157.72838719921677 371.9780550459136 -157.73275917585673 367.1823636402994 -157.73981857299805 362.3866424560547 C-157.74911118434792 355.9319291922418 -157.74249458563693 349.4773511169191 -157.72513580322266 343.0226535797119 C-157.72116265942182 340.6510681826275 -157.72231908251996 338.27946794082254 -157.72892379760742 335.9078884124756 C-157.7370964453773 332.67576582734995 -157.72686902713906 329.4442137222271 -157.71188354492188 326.2121276855469 C-157.71857571005822 325.26903826236725 -157.72526787519456 324.3259488391876 -157.7321628332138 323.3542809486389 C-157.68848257385537 318.51196638511 -157.52403015201878 315.1747405488484 -154.3309326171875 311.2674255371094 C-148.80722511256383 307.146990003725 -142.529007662448 307.9289538487907 -135.9559326171875 308.0799255371094 C-134.8383154296875 308.09346069335936 -133.7206982421875 308.10699584960935 -132.5692138671875 308.1209411621094 C-129.82262050724933 308.1561538974932 -127.07702972798256 308.2054045808197 -124.3309326171875 308.2674255371094 C-124.35187988281251 307.63240112304686 -124.37282714843752 306.99737670898435 -124.3944091796875 306.3431091308594 C-124.47797842433442 303.4430447739033 -124.52972035515211 300.54323437954434 -124.5809326171875 297.6424255371094 C-124.63120605468748 296.1438903808594 -124.63120605468748 296.1438903808594 -124.6824951171875 294.6150817871094 C-124.7425943986575 290.07758603612285 -124.62754702181098 286.92966858901633 -122.7528076171875 282.7439880371094 C-118.84988184274386 278.75293168066213 -115.3332977956112 277.3046279502604 -109.7567138671875 277.2010192871094 C-108.38303370246075 277.3463271578592 -107.01184666899587 277.51636638172556 -105.6434326171875 277.7049255371094 C-104.85364013671875 277.8020080566406 -104.06384765625 277.8990905761719 -103.2501220703125 277.9991149902344 C-100.27115618245728 278.3868915790672 -97.30190720743832 278.82243374826123 -94.3309326171875 279.2674255371094 C-93.03768066406252 279.4601403808594 -91.74442871093748 279.65285522460937 -90.4119873046875 279.8514099121094 C-36.63994048148004 287.97620420617835 13.984018417279913 302.77573166736903 61.6690673828125 329.2674255371094 C61.99906738281254 313.4274255371094 62.32906738281247 297.58742553710937 62.6690673828125 281.2674255371094 C57.28207519531247 281.3254333496094 51.8950830078125 281.38344116210936 46.3448486328125 281.4432067871094 C42.88583324219792 281.4688223265098 39.426938513436426 281.4928962892407 35.9678955078125 281.5115661621094 C30.504506778836003 281.54119651698636 25.041545680924628 281.5758373214203 19.5784912109375 281.6446228027344 C-17.978994983868574 282.10477553190435 -50.503227060867005 277.2715457593482 -78.5574951171875 250.04086303710938 C-107.13687357094636 221.4614845833505 -115.40041003978047 188.74857413193058 -115.46881103515625 149.21444702148438 C-115.46803483271896 147.23145405795975 -115.46551869659243 145.2484610479251 -115.4613037109375 143.26547241210938 C-115.45593952313897 140.27128031365055 -115.46128700502402 137.27723815186 -115.4676513671875 134.28305053710938 C-115.48190543110661 102.8418250915733 -115.48190543110661 102.8418250915733 -112.5809326171875 91.01742553710938 C-112.40610351562498 90.27347534179688 -112.23127441406251 89.52952514648439 -112.0511474609375 88.76303100585938 C-106.66000660406479 66.76774429656396 -95.07404485987234 48.23543938326114 -79.3309326171875 32.267425537109375 C-78.55233886718747 31.475941162109365 -77.7737451171875 30.684456787109383 -76.9715576171875 29.868988037109375 C-64.41089978070579 17.85627836127958 -48.30445047377157 9.498331551454584 -31.7684326171875 4.517425537109375 C-31.108513183593743 4.3185070800781205 -30.448593749999986 4.119588623046866 -29.7686767578125 3.914642333984375 C-19.95693996081991 1.1285345895831256 -10.17829371630694 -0.032213167063417814 0 0 Z " fill="#1C1D1C" transform="translate(391.3309326171875,148.73257446289063)"/>
<path d="M0 0 C0.9231878882646356 -0.004457843899729141 1.846375776529328 -0.008915687799458283 2.7975390553474426 -0.013508617877960205 C4.305973818600194 -0.013232074081884093 4.305973818600194 -0.013232074081884093 5.844882011413574 -0.012949943542480469 C6.920006458163243 -0.016626631617555176 7.995130904912969 -0.020303319692601463 9.10283488035202 -0.02409142255783081 C12.71214248422018 -0.03512062747040545 16.321421288297813 -0.03897088039687446 19.93074321746826 -0.04278087615966797 C22.516325607722194 -0.049046265026873925 25.101907097703588 -0.05569313290942546 27.687487602233887 -0.06269359588623047 C35.452694492055116 -0.08243361583654973 43.217902635978874 -0.09252275541285826 50.9831283390522 -0.10142138600349426 C54.64557051738609 -0.10580980209724089 58.30801126146048 -0.11117531030350847 61.970452308654785 -0.1164102554321289 C74.15617891511636 -0.13342285334121584 86.34190464021208 -0.14791384697437593 98.52764129638672 -0.15515899658203125 C101.68821304242522 -0.15706871009388124 104.84878478087325 -0.15898906486245323 108.00935649871826 -0.16094493865966797 C109.18758915875105 -0.1616705489531114 109.18758915875105 -0.1616705489531114 110.38962449878454 -0.16241081804037094 C123.0949670947465 -0.1706992033224708 135.8002151781469 -0.19601576870678628 148.50551656633615 -0.22852561622858047 C161.56869734443353 -0.26167675097218535 174.63183024159798 -0.2796151573053862 187.69505327939987 -0.2828032374382019 C195.02178730162427 -0.2849612958675607 202.34838364834923 -0.29360568589339664 209.67507648468018 -0.31926441192626953 C216.57552734425053 -0.34337526810148233 223.47572773986462 -0.34674677224131756 230.37621212005615 -0.3365030288696289 C232.89960649322825 -0.33600940858889317 235.42301333449495 -0.3422781109478592 237.9463701248169 -0.35605907440185547 C268.58025116305134 -0.5139074040341995 292.13123502133305 7.264906100239074 314.29085063934326 29.134221076965332 C329.2490046678697 44.06355399946378 339.34029836618583 66.39440749312755 339.45198345184326 87.56976795196533 C339.45694835662835 88.28942737579348 339.46191326141366 89.00908679962157 339.4670286178589 89.75055408477783 C339.4815621396001 92.11803640295608 339.48843986156794 94.48545157363708 339.49397563934326 96.85297107696533 C339.4968030166626 97.66846927642825 339.499630393982 98.48396747589112 339.50254344940186 99.3241777420044 C339.51750559304924 103.64562773235053 339.52675199871874 107.96704463798085 339.53108501434326 112.28851795196533 C339.53654439362913 116.7150635566029 339.56052702192596 121.1412976437756 339.58905696868896 125.56774616241455 C339.607846494784 129.00308531374162 339.61289768150834 132.43835213367043 339.6144208908081 135.8737382888794 C339.617414736736 137.50334328898407 339.62533010717357 139.1329480451284 339.63860607147217 140.76250171661377 C339.8447255756304 168.0231546282145 330.4278049077175 191.6835502494505 311.35335063934326 211.44672107696533 C294.14503158537525 227.99521194634872 271.4678208790583 237.49632985006576 247.60628032684326 237.38959217071533 C246.6015467453003 237.39321262359618 245.59681316375736 237.39683307647704 244.5616331100464 237.40056324005127 C242.40156486481555 237.40740510384984 240.2414795261077 237.40997256855508 238.08140087127686 237.408616065979 C234.65917713824683 237.40764335670872 231.23726105510048 237.42067825300217 227.8150815963745 237.43759632110596 C218.092835283991 237.48366220410048 208.37062442249453 237.50849153285674 198.64827251434326 237.51508045196533 C192.68323438034895 237.52009585888834 186.71852354816644 237.54433638332222 180.75359630584717 237.58040714263916 C178.48745723619254 237.59019346212358 176.22127311711347 237.59254349470956 173.9551191329956 237.58723545074463 C170.78900354643645 237.58016147410603 167.62386597768125 237.5974512632049 164.45784282684326 237.62006092071533 C163.52781444549555 237.61188846588135 162.59778606414795 237.60371601104737 161.63957500457764 237.5952959060669 C152.75617800164332 237.70800009899494 147.54051252767954 241.60512666655927 141.04085063934326 247.32172107696533 C139.8996058365385 248.30688700428232 138.757668399943 249.2912510865085 137.61506938934326 250.27484607696533 C137.05352153778074 250.7601781082153 136.49197368621822 251.2455101394653 135.91340923309326 251.74554920196533 C133.59436949568783 253.73030665402104 131.22580699253365 255.6513280466133 128.85335063934326 257.57172107696533 C124.67743257666268 260.9729760787429 120.56419388710361 264.43844595257696 116.47835063934326 267.94672107696533 C115.89730571746827 268.44526599884034 115.31626079559328 268.94381092071535 114.71760845184326 269.45746326446533 C111.59901519251684 272.1376381413713 108.4911599023244 274.829562273497 105.39241313934326 277.53265857696533 C104.75795269012451 278.0833299636841 104.12349224090576 278.63400135040285 103.46980571746826 279.20135974884033 C102.25016166562534 280.26019265558745 101.03370266863976 281.3227085608562 99.82087993621826 282.38934803009033 C97.31852573215122 284.5574196745984 95.46561217879196 286.07596723048243 92.29085063934326 287.13422107696533 C92.29085063934326 287.79422107696536 92.29085063934326 288.4542210769653 92.29085063934326 289.13422107696533 C91.6308506393433 289.13422107696533 90.97085063934327 289.13422107696533 90.29085063934326 289.13422107696533 C89.96085063934322 272.30422107696535 89.6308506393433 255.47422107696536 89.29085063934326 238.13422107696533 C79.28256938934328 238.09554920196535 79.28256938934328 238.09554920196535 69.07210063934326 238.05609607696533 C64.81555316748398 238.03089494549823 60.55907446082324 238.00453683225817 56.30256938934326 237.97406482696533 C49.56379829917972 237.92593096970808 42.825186628272945 237.88181121859378 36.08626079559326 237.86322498321533 C30.646029947895727 237.8479504903538 25.206219519257616 237.81331623198759 19.7661771774292 237.76591205596924 C17.70287028192388 237.75120869081155 15.639503327452417 237.74318649834925 13.576144218444824 237.74233722686768 C1.1821656263817886 237.73211655018292 -9.839871615852758 236.885640282621 -21.70914936065674 233.13422107696533 C-22.62893573760988 232.84424243927003 -23.54872211456302 232.55426380157473 -24.49638080596924 232.25549793243408 C-47.57600166504244 224.47168030558225 -66.11790192756348 204.27190322688307 -77.33414936065674 183.44672107696533 C-79.45199914055195 179.0707665648639 -80.9932391191399 174.57214024960075 -82.45914936065674 169.94672107696533 C-82.67007221221922 169.2813231277466 -82.88099506378171 168.61592517852785 -83.09830951690674 167.93036365509033 C-85.09654462897583 161.33651563351702 -85.83232195487409 155.00800615693555 -85.85441303253174 148.13593006134033 C-85.85777164459228 147.47464603424072 -85.86113025665281 146.8133620071411 -85.86459064483643 146.1320390701294 C-85.87401939475723 143.96477804249906 -85.87604013963733 141.79759504293406 -85.87711811065674 139.63031482696533 C-85.88033797727024 138.10444070038795 -85.88370257899294 136.57856687308475 -85.88720417022705 135.0526933670044 C-85.8931765321804 131.85777542197525 -85.89504619171339 128.6628844401098 -85.89445209503174 125.46796131134033 C-85.89435097038739 121.41255969905308 -85.90796008194798 117.35733512213324 -85.92522430419922 113.30197525024414 C-85.93645425315879 110.14886684906747 -85.93836791127757 106.99579963459678 -85.93784236907959 103.84267330169678 C-85.93900766423843 102.3498425870277 -85.94334584947006 100.85701027910704 -85.95117473602295 99.3641996383667 C-86.07058428084537 74.22905885783672 -79.9574437475548 51.06821264652709 -62.70914936065674 32.13422107696533 C-61.836454048156725 31.16871326446534 -60.96375873565671 30.203205451965346 -60.06461811065674 29.208439826965332 C-46.29897896701539 14.481696823687685 -29.486604185067335 5.231190109145757 -9.709149360656738 1.134221076965332 C-8.927215507626556 0.9607906562089852 -8.145281654596317 0.7873602354526383 -7.339652836322784 0.6086743474006653 C-4.826457823190765 0.15537952979153147 -2.5494249359194328 0.005739706527691624 0 0 Z " fill="#5AA47E" transform="translate(384.70914936065674,170.86577892303467)"/>
<path d="M0 0 C8.106000375827932 0.6235384904483112 15.905473838206547 1.270930477127365 23.875 2.625 C24.88328857421874 2.796123046874982 25.891577148437477 2.9672460937500205 26.930419921875 3.1435546875 C85.07117766689078 13.357412197471774 142.33261430564642 33.440581521721015 189.75 69.4375 C190.36206298828125 69.90212646484372 190.9741259765625 70.36675292968744 191.604736328125 70.845458984375 C192.8947317744861 71.84960792710035 194.15213705027884 72.8966272723776 195.37899780273438 73.97700500488281 C197.52560357704124 75.63384174559326 199.27945867532674 76.66046334762609 201.6707305908203 77.83685302734375 C206.68328662760086 80.67413433047318 210.32809590598873 83.82730782755118 213 89 C215.7029923271483 100.68807802853462 214.79543588664114 113.14000981678817 214.52090907096863 125.04992508888245 C214.42658829092107 129.83551210433495 214.41828593433115 134.62126545669025 214.40052795410156 139.4076385498047 C214.35406304854314 148.45376104563343 214.23119887371365 157.49713653047888 214.08028560876846 166.54205387830734 C213.91212167999925 176.84648529146625 213.8300272666566 187.1510539496344 213.75485408306122 197.4565178155899 C213.59842436254576 218.63920682286744 213.33490607729834 239.8194297974078 213 261 C211.50154037475585 260.1977172088623 211.50154037475585 260.1977172088623 209.97280883789063 259.3792266845703 C208.63244623527794 258.6626919405908 207.29206219177792 257.94619730331146 205.95166015625 257.229736328125 C205.2967811584473 256.8789728546142 204.64190216064452 256.5282093811036 203.96717834472656 256.1668167114258 C182.59562180682417 244.74985207354155 160.84043551847003 235.08712809064104 138 227 C137.108291015625 226.6762841796875 136.21658203125003 226.35256835937503 135.2978515625 226.01904296875 C117.24771181230739 219.4770234573972 98.57070694621609 214.80395188422267 80 210 C78.7749072265625 209.6807958984375 77.54981445312501 209.36159179687502 76.28759765625 209.03271484375 C51.10701045024484 202.5556168129824 25.901010154418827 200.25226175255818 0 198 C0 132.65999999999997 0 67.31999999999994 0 0 Z " fill="#F09646" transform="translate(288,450)"/>
<path d="M0 0 C0 65.34000000000003 0 130.68000000000006 0 198 C-8.580000000000041 198.65999999999997 -17.159999999999968 199.31999999999994 -26 200 C-33.039327570938894 200.87991594636742 -40.010391734749305 201.8323242662758 -47 203 C-47.919907226562486 203.14743652343748 -48.83981445312497 203.29487304687495 -49.78759765625 203.44677734375 C-103.61484762594182 212.22839969721622 -155.6804414043621 231.56558447307407 -203.955078125 256.49462890625 C-206.6051140358046 257.80477334387206 -209.2508300970968 258.9217125341197 -212 260 C-212.30415823403735 237.9120589192421 -212.53315678216404 215.82446479268026 -212.67355823516846 193.7348518371582 C-212.74049299482317 183.47730610687506 -212.831685424537 173.22106412150254 -212.980712890625 162.96435546875 C-213.11059831548027 154.02079360739242 -213.19422854533013 145.07817611730218 -213.22315043210983 136.13369727134705 C-213.24004929152466 131.4003627908004 -213.27953354018553 126.66972899215523 -213.37449073791504 121.93726348876953 C-213.46330382060955 117.47449225500793 -213.48984430760015 113.01551008352351 -213.47039985656738 108.55193901062012 C-213.4739518615213 106.92163610884234 -213.49949137415456 105.29119548525557 -213.5496711730957 103.66166114807129 C-213.92677030932543 90.77441328546558 -213.92677030932543 90.77441328546558 -209.1610164642334 85.40689849853516 C-205.99979666186005 82.29511687459433 -202.5630515004209 79.62964046140132 -199 77 C-197.53185646353666 75.79595406746068 -196.06688680833497 74.58798790311607 -194.609375 73.37109375 C-193.32964849710402 72.3844356204911 -192.0432064877133 71.4064226836424 -190.75 70.4375 C-190.03875976562495 69.90068603515624 -189.32751953125 69.36387207031248 -188.5947265625 68.810791015625 C-140.16382451936124 32.71133840383976 -84.22508529116612 13.815662239498067 -25.375 3.125 C-24.083011932372983 2.8885879516601563 -24.083011932372983 2.8885879516601563 -22.764923095703125 2.64739990234375 C-20.28988392693668 2.197414291349446 -17.81334640215698 1.7570430899066878 -15.3359375 1.3203125 C-14.598377227783203 1.1862701416015398 -13.860816955566406 1.0522277832031364 -13.100906372070313 0.91412353515625 C-12.40035629272461 0.7930926513672034 -11.699806213378906 0.6720617675781 -10.97802734375 0.54736328125 C-10.075205230712868 0.3879777526855719 -10.075205230712868 0.3879777526855719 -9.154144287109375 0.225372314453125 C-6.118407452467409 -0.09223456108816208 -3.0523060555248094 0 0 0 Z " fill="#F09646" transform="translate(735,450)"/>
<path d="M0 0 C3.9600000000000364 0 7.919999999999959 0 12 0 C12 71.94000000000005 12 143.88 12 218 C-42.77999999999997 218 -97.55999999999995 218 -154 218 C-148.93952830891112 214.62635220594075 -143.01064684804965 213.2233051415909 -137.25 211.375 C-136.56483306884763 211.15445953369135 -135.87966613769527 210.93391906738282 -135.17373657226563 210.70669555664063 C-111.52520583372757 203.12826169577966 -87.50876372409493 197.07947694268614 -63 193 C-62.06381835937498 192.84160644531244 -61.127636718749955 192.683212890625 -60.1630859375 192.52001953125 C-50.67499167914582 190.96324814905097 -41.271864582177955 189.96124987412725 -31.66015625 189.73828125 C-30.93928833007817 189.72100982666018 -30.218420410156227 189.70373840332036 -29.4757080078125 189.68594360351563 C-25.895123630174112 189.60699096891244 -22.31728888657426 189.55855372112 -18.73583984375 189.5537109375 C-17.429536132812473 189.53727539062504 -16.123232421874945 189.52083984374997 -14.77734375 189.50390625 C-13.614528808593718 189.5020532226563 -12.451713867187436 189.50020019531246 -11.253662109375 189.498291015625 C-7.298443220600575 188.89255816111995 -5.111659330179691 187.4685427658702 -2 185 C-0.5234208839017356 182.04684176780347 -0.846266828447483 179.0505397933556 -0.8417816162109375 175.81210327148438 C-0.8368436390161378 175.063104339838 -0.8319056618213381 174.31410540819172 -0.82681804895401 173.54240953922272 C-0.8113966443340814 171.01964903558599 -0.8030699107960118 168.49691406788145 -0.794677734375 165.97412109375 C-0.7851028542215772 164.1708910460576 -0.7750930085749133 162.36766326274915 -0.764678955078125 160.56443786621094 C-0.7375815396393364 155.6577024303947 -0.716598210812549 150.75095732807108 -0.6966769695281982 145.8441882133484 C-0.6748471881319347 140.7205398139281 -0.647443817315434 135.5969213726662 -0.6206207275390625 130.47329711914063 C-0.5706530770630707 120.76586345752537 -0.5257293856483329 111.05841320405796 -0.48259836435317993 101.35094702243805 C-0.4332607437194156 90.3015143176417 -0.37832975309970607 79.2521116633917 -0.32291877269744873 68.20270800590515 C-0.20903622389721477 45.468500027898244 -0.10221088207003959 22.734263235467097 0 0 Z " fill="#EA7642" transform="translate(756,480)"/>
<path d="M0 0 C3.6299999999999955 0 7.259999999999991 0 11 0 C11.002388353347783 0.9282165813446 11.004776706695566 1.8564331626892 11.007237434387207 2.812777519226074 C11.066007038014902 25.388375808431533 11.141874105842476 47.963867154314244 11.23571491241455 70.5393476486206 C11.280698783271305 81.45664187677312 11.320107479155865 92.37390329395487 11.346435546875 103.291259765625 C11.36939462600236 112.80576597340212 11.402769242010379 122.32016857138956 11.448701560497284 131.83459264039993 C11.472661960413745 136.87337335308973 11.491372276825075 141.91205127433727 11.497613906860352 146.9508876800537 C11.503652007095525 151.69264536504045 11.523605670426548 156.4341399420731 11.554275512695313 161.17580032348633 C11.5630762031372 162.91685600050096 11.566774127318865 164.6579460318901 11.565008163452148 166.39902305603027 C11.563358709514489 168.77540971169697 11.58002587707358 171.15099116093722 11.601272583007813 173.5272674560547 C11.596425006985669 174.21696489036083 11.591577430963525 174.90666232466697 11.586582958698273 175.61725968122482 C11.649945069299065 179.90849618587959 12.417271212441392 182.5666918943375 15 186 C18.992118035698866 189.21565152043877 22.81866923755956 189.4946048923116 27.7734375 189.625 C28.900171279907227 189.67244102478026 28.900171279907227 189.67244102478026 30.049667358398438 189.72084045410156 C31.656402897287307 189.78834514243385 33.263374752792174 189.85040757036677 34.870513916015625 189.90750122070313 C39.104403345528794 190.06387246445342 43.33516282167898 190.28087668477474 47.56640625 190.49609375 C48.39913558959961 190.53802352905268 49.23186492919922 190.57995330810547 50.08982849121094 190.62315368652344 C89.30534134418633 192.64914213199063 128.0597331702072 204.34026272187316 165 217 C165 217.33000000000004 165 217.65999999999997 165 218 C110.55000000000001 218 56.10000000000002 218 0 218 C0 146.05999999999995 0 74.12 0 0 Z " fill="#EB7842" transform="translate(256,480)"/>
<path d="M0 0 C6.539153172097031 2.9148887907177823 10.875782261341215 8.696423132658936 14.35546875 14.7578125 C16.57191357312354 22.319800720068542 15.976228502861318 28.879604296622688 12.73046875 36.05859375 C8.790003875371042 43.03650029882209 3.6869864001572523 46.339105991571785 -3.88671875 48.72265625 C-11.60109881734229 50.61212035345051 -17.57452158486126 48.87444361342551 -24.58203125 45.3828125 C-30.09430985292039 41.95295025818285 -33.54926009518579 36.4811259644427 -35.58203125 30.3828125 C-36.269537417168294 22.741672527758226 -36.51437978366948 15.869055128434525 -32.2109375 9.28515625 C-29.42583875777825 6.03253493714152 -26.232144952045303 3.596102120524506 -22.58203125 1.3828125 C-22.000664062499993 1.0076953125000045 -21.419296874999986 0.6325781250000091 -20.8203125 0.24609375 C-14.88507401396788 -2.0430645491502446 -6.09064450055871 -1.455857535685709 0 0 Z " fill="#1A1C1B" transform="translate(421.58203125,265.6171875)"/>
<path d="M0 0 C5.547844327424741 5.668976299639326 8.55304015109391 12.041212766831563 9.4375 19.875 C9.062709082898095 27.839306988415046 5.267215959871692 34.71489621820058 -0.171875 40.37109375 C-6.036950792530092 45.597026667703176 -12.015250234552582 45.52910243613576 -19.6171875 45.3515625 C-26.76827809902767 44.608377564766215 -31.353739969273022 41.4206367025148 -36 36 C-41.446768294899584 28.435044034861676 -41.713285030857435 22.1708075395959 -41 13 C-39.042100898809736 5.593008219593457 -33.2932611893375 -0.024043286397500196 -26.875 -3.875 C-17.454545596299056 -7.561264766665545 -8.041780278344277 -6.223906575576734 0 0 Z " fill="#FBC74F" transform="translate(528,803)"/>
<path d="M0 0 C4.703791412675855 2.7471394107308242 7.697192836642444 6.343329381186209 10.4375 11 C10.810039062499982 11.604570312500016 11.182578124999964 12.209140624999975 11.56640625 12.83203125 C13.890361729351184 18.615866635829263 13.285423954697194 26.042125739428286 11.59765625 31.9296875 C8.432548130929376 38.941947238547016 3.7092455247117186 43.30532667282296 -3.41796875 46.1328125 C-9.900518277036781 47.92054665528224 -17.598581674924617 48.2843526993891 -23.875 45.5625 C-29.69623651509403 42.0771736788609 -34.32279783821696 36.789329864011904 -37.0625 30.625 C-38.243862662155266 22.060120699374636 -38.415699280985336 15.389714584636181 -33.5625 8 C-32.727187500000014 6.669687500000009 -32.727187500000014 6.669687500000009 -31.875 5.3125 C-23.26772535028249 -3.2947746497175103 -11.200453319025314 -4.97421944983904 0 0 Z " fill="#1A1B1B" transform="translate(624.5625,267)"/>
<path d="M0 0 C6.990736153406488 4.311467231175811 10.72499605160806 10.215129044646403 12.7734375 18.09375 C13.915239034709657 24.991643807627383 12.166470704176504 31.05614679845064 8.7734375 37.09375 C5.178003189075412 41.8372314052545 0.7614882862091008 45.94338689870426 -5.2265625 47.09375 C-13.33880049502767 47.8188662453656 -21.621001250089193 48.50789723451595 -28.2265625 43.09375 C-34.65708385325729 36.95785412707119 -37.50212981813149 31.930314083463088 -37.7265625 22.90625 C-37.725680705044795 15.676413162123083 -36.16458378494076 10.473382944569607 -31.2265625 5.09375 C-22.426882374969978 -2.2093858860793034 -10.840511857832212 -4.93998008711344 0 0 Z " fill="#1A1B1A" transform="translate(524.2265625,266.90625)"/>
<path d="M0 0 C5.793343306297061 3.40855749622051 10.473146922862327 9.101488161761381 12.625 15.4375 C13.96908572339862 24.547414347479616 12.035169316998577 31.977857173914344 6.625 39.4375 C0.6965860420509671 44.8130048841507 -5.037300876087102 46.82269998847255 -12.9375 46.71875 C-19.75210221696807 45.93244974419599 -25.662467649716177 42.25962612587182 -30.375 37.4375 C-35.19098726368412 31.136208253123527 -35.29625388300934 24.095422902515224 -34.375 16.4375 C-32.28320022443489 8.514808350047247 -26.048964184184115 4.025974766129707 -19.625 -0.5 C-13.273734198109707 -2.5763753583103153 -6.181983242994647 -2.7581156007206573 0 0 Z " fill="#2C81C4" transform="translate(377.375,770.5625)"/>
<path d="M0 0 C6.737815343102852 4.163403265025181 10.850482413189411 9.758146155164923 13.13671875 17.3203125 C14.145236434662934 24.253871582057855 11.695769723763647 30.749859417242305 7.6640625 36.375 C2.5592217618756194 41.99877253892669 -4.260716119300014 45.29918123744119 -11.86328125 45.8828125 C-19.00522615377372 45.435539182793946 -25.115579692964616 41.52533331333768 -29.86328125 36.3828125 C-34.99406962456487 29.887838039962617 -35.764518314309385 23.43144607878412 -34.86328125 15.3203125 C-33.01266648316221 8.59719303060183 -28.41386302144133 4.279029310575197 -22.86328125 0.3203125 C-15.1175942279732 -4.045438366960525 -7.869044949706677 -3.9276559434836145 0 0 Z " fill="#E6694B" transform="translate(668.86328125,771.6796875)"/>
</svg>
